<mxfile host="app.diagrams.net" modified="2024-07-01T14:48:16.983Z" agent="Mozilla/5.0 (Windows NT 10.0; Win64; x64) AppleWebKit/537.36 (KHTML, like Gecko) Chrome/126.0.0.0 Safari/537.36" etag="wcQli6UsiTIFnpEaFuF0" version="24.6.3" type="device">
  <diagram id="R2lEEEUBdFMjLlhIrx00" name="Page-1">
    <mxGraphModel dx="2350" dy="1846" grid="1" gridSize="10" guides="1" tooltips="1" connect="1" arrows="1" fold="1" page="1" pageScale="1" pageWidth="850" pageHeight="1100" math="0" shadow="0" extFonts="Permanent Marker^https://fonts.googleapis.com/css?family=Permanent+Marker">
      <root>
        <mxCell id="0" />
        <mxCell id="1" parent="0" />
        <mxCell id="YmvjijiLY2P1SuIOJziN-15" style="edgeStyle=orthogonalEdgeStyle;rounded=0;orthogonalLoop=1;jettySize=auto;html=1;exitX=0.5;exitY=0;exitDx=0;exitDy=0;entryX=0.5;entryY=1;entryDx=0;entryDy=0;" edge="1" parent="1" source="YmvjijiLY2P1SuIOJziN-1" target="YmvjijiLY2P1SuIOJziN-4">
          <mxGeometry relative="1" as="geometry" />
        </mxCell>
        <mxCell id="YmvjijiLY2P1SuIOJziN-16" style="edgeStyle=orthogonalEdgeStyle;rounded=0;orthogonalLoop=1;jettySize=auto;html=1;exitX=0;exitY=0.5;exitDx=0;exitDy=0;entryX=1;entryY=0.5;entryDx=0;entryDy=0;" edge="1" parent="1" source="YmvjijiLY2P1SuIOJziN-1" target="YmvjijiLY2P1SuIOJziN-3">
          <mxGeometry relative="1" as="geometry" />
        </mxCell>
        <mxCell id="YmvjijiLY2P1SuIOJziN-113" style="edgeStyle=orthogonalEdgeStyle;rounded=0;orthogonalLoop=1;jettySize=auto;html=1;exitX=0;exitY=1;exitDx=0;exitDy=0;entryX=0.5;entryY=0;entryDx=0;entryDy=0;" edge="1" parent="1" source="YmvjijiLY2P1SuIOJziN-1" target="YmvjijiLY2P1SuIOJziN-2">
          <mxGeometry relative="1" as="geometry">
            <Array as="points">
              <mxPoint x="110" y="130" />
              <mxPoint x="110" y="120" />
              <mxPoint x="45" y="120" />
            </Array>
          </mxGeometry>
        </mxCell>
        <mxCell id="YmvjijiLY2P1SuIOJziN-193" style="edgeStyle=orthogonalEdgeStyle;rounded=0;orthogonalLoop=1;jettySize=auto;html=1;exitX=0.5;exitY=1;exitDx=0;exitDy=0;entryX=0;entryY=0.5;entryDx=0;entryDy=0;shape=link;" edge="1" parent="1" source="YmvjijiLY2P1SuIOJziN-1" target="YmvjijiLY2P1SuIOJziN-191">
          <mxGeometry relative="1" as="geometry" />
        </mxCell>
        <mxCell id="YmvjijiLY2P1SuIOJziN-201" style="edgeStyle=orthogonalEdgeStyle;rounded=0;orthogonalLoop=1;jettySize=auto;html=1;exitX=0.25;exitY=1;exitDx=0;exitDy=0;entryX=0;entryY=0.5;entryDx=0;entryDy=0;shape=link;" edge="1" parent="1" source="YmvjijiLY2P1SuIOJziN-1" target="YmvjijiLY2P1SuIOJziN-199">
          <mxGeometry relative="1" as="geometry" />
        </mxCell>
        <mxCell id="YmvjijiLY2P1SuIOJziN-206" style="edgeStyle=orthogonalEdgeStyle;rounded=0;orthogonalLoop=1;jettySize=auto;html=1;exitX=0;exitY=1;exitDx=0;exitDy=0;entryX=0;entryY=0.5;entryDx=0;entryDy=0;shape=link;" edge="1" parent="1" source="YmvjijiLY2P1SuIOJziN-1" target="YmvjijiLY2P1SuIOJziN-204">
          <mxGeometry relative="1" as="geometry" />
        </mxCell>
        <mxCell id="YmvjijiLY2P1SuIOJziN-1" value="Branch" style="whiteSpace=wrap;html=1;align=center;" vertex="1" parent="1">
          <mxGeometry x="130" y="90" width="100" height="40" as="geometry" />
        </mxCell>
        <mxCell id="YmvjijiLY2P1SuIOJziN-2" value="Id" style="ellipse;whiteSpace=wrap;html=1;align=center;fontStyle=4;" vertex="1" parent="1">
          <mxGeometry x="-5" y="130" width="100" height="40" as="geometry" />
        </mxCell>
        <mxCell id="YmvjijiLY2P1SuIOJziN-3" value="Contact Number" style="ellipse;whiteSpace=wrap;html=1;align=center;" vertex="1" parent="1">
          <mxGeometry x="-20" y="60" width="100" height="40" as="geometry" />
        </mxCell>
        <mxCell id="YmvjijiLY2P1SuIOJziN-4" value="Address" style="ellipse;whiteSpace=wrap;html=1;align=center;" vertex="1" parent="1">
          <mxGeometry x="100" y="20" width="100" height="40" as="geometry" />
        </mxCell>
        <mxCell id="YmvjijiLY2P1SuIOJziN-134" style="edgeStyle=orthogonalEdgeStyle;rounded=0;orthogonalLoop=1;jettySize=auto;html=1;exitX=0.5;exitY=0;exitDx=0;exitDy=0;entryX=0.5;entryY=1;entryDx=0;entryDy=0;" edge="1" parent="1" source="YmvjijiLY2P1SuIOJziN-137" target="YmvjijiLY2P1SuIOJziN-140">
          <mxGeometry relative="1" as="geometry" />
        </mxCell>
        <mxCell id="YmvjijiLY2P1SuIOJziN-135" style="edgeStyle=orthogonalEdgeStyle;rounded=0;orthogonalLoop=1;jettySize=auto;html=1;exitX=0;exitY=0.5;exitDx=0;exitDy=0;entryX=1;entryY=0.5;entryDx=0;entryDy=0;" edge="1" parent="1" source="YmvjijiLY2P1SuIOJziN-137" target="YmvjijiLY2P1SuIOJziN-139">
          <mxGeometry relative="1" as="geometry" />
        </mxCell>
        <mxCell id="YmvjijiLY2P1SuIOJziN-136" style="edgeStyle=orthogonalEdgeStyle;rounded=0;orthogonalLoop=1;jettySize=auto;html=1;exitX=0;exitY=1;exitDx=0;exitDy=0;entryX=0.5;entryY=0;entryDx=0;entryDy=0;" edge="1" parent="1" source="YmvjijiLY2P1SuIOJziN-137" target="YmvjijiLY2P1SuIOJziN-138">
          <mxGeometry relative="1" as="geometry">
            <Array as="points">
              <mxPoint x="630" y="115" />
              <mxPoint x="630" y="105" />
              <mxPoint x="565" y="105" />
            </Array>
          </mxGeometry>
        </mxCell>
        <mxCell id="YmvjijiLY2P1SuIOJziN-142" style="edgeStyle=orthogonalEdgeStyle;rounded=0;orthogonalLoop=1;jettySize=auto;html=1;exitX=0.75;exitY=0;exitDx=0;exitDy=0;entryX=0.5;entryY=1;entryDx=0;entryDy=0;" edge="1" parent="1" source="YmvjijiLY2P1SuIOJziN-137" target="YmvjijiLY2P1SuIOJziN-141">
          <mxGeometry relative="1" as="geometry" />
        </mxCell>
        <mxCell id="YmvjijiLY2P1SuIOJziN-148" style="edgeStyle=orthogonalEdgeStyle;rounded=0;orthogonalLoop=1;jettySize=auto;html=1;exitX=1;exitY=0.25;exitDx=0;exitDy=0;entryX=0;entryY=0.5;entryDx=0;entryDy=0;" edge="1" parent="1" source="YmvjijiLY2P1SuIOJziN-137" target="YmvjijiLY2P1SuIOJziN-147">
          <mxGeometry relative="1" as="geometry" />
        </mxCell>
        <mxCell id="YmvjijiLY2P1SuIOJziN-151" style="edgeStyle=orthogonalEdgeStyle;rounded=0;orthogonalLoop=1;jettySize=auto;html=1;exitX=1;exitY=0.5;exitDx=0;exitDy=0;entryX=0;entryY=0.5;entryDx=0;entryDy=0;" edge="1" parent="1" source="YmvjijiLY2P1SuIOJziN-137" target="YmvjijiLY2P1SuIOJziN-150">
          <mxGeometry relative="1" as="geometry" />
        </mxCell>
        <mxCell id="YmvjijiLY2P1SuIOJziN-152" style="edgeStyle=orthogonalEdgeStyle;rounded=0;orthogonalLoop=1;jettySize=auto;html=1;exitX=1;exitY=1;exitDx=0;exitDy=0;entryX=0;entryY=0.5;entryDx=0;entryDy=0;" edge="1" parent="1" source="YmvjijiLY2P1SuIOJziN-137" target="YmvjijiLY2P1SuIOJziN-149">
          <mxGeometry relative="1" as="geometry" />
        </mxCell>
        <mxCell id="YmvjijiLY2P1SuIOJziN-192" style="edgeStyle=orthogonalEdgeStyle;rounded=0;orthogonalLoop=1;jettySize=auto;html=1;exitX=0.5;exitY=1;exitDx=0;exitDy=0;entryX=1;entryY=0.5;entryDx=0;entryDy=0;" edge="1" parent="1" source="YmvjijiLY2P1SuIOJziN-137" target="YmvjijiLY2P1SuIOJziN-191">
          <mxGeometry relative="1" as="geometry" />
        </mxCell>
        <mxCell id="YmvjijiLY2P1SuIOJziN-200" style="edgeStyle=orthogonalEdgeStyle;rounded=0;orthogonalLoop=1;jettySize=auto;html=1;exitX=0.75;exitY=1;exitDx=0;exitDy=0;entryX=1;entryY=0.5;entryDx=0;entryDy=0;" edge="1" parent="1" source="YmvjijiLY2P1SuIOJziN-137" target="YmvjijiLY2P1SuIOJziN-199">
          <mxGeometry relative="1" as="geometry" />
        </mxCell>
        <mxCell id="YmvjijiLY2P1SuIOJziN-137" value="Staff Member" style="whiteSpace=wrap;html=1;align=center;" vertex="1" parent="1">
          <mxGeometry x="650" y="75" width="100" height="40" as="geometry" />
        </mxCell>
        <mxCell id="YmvjijiLY2P1SuIOJziN-138" value="Id" style="ellipse;whiteSpace=wrap;html=1;align=center;fontStyle=4;" vertex="1" parent="1">
          <mxGeometry x="515" y="115" width="100" height="40" as="geometry" />
        </mxCell>
        <mxCell id="YmvjijiLY2P1SuIOJziN-139" value="Full Name" style="ellipse;whiteSpace=wrap;html=1;align=center;" vertex="1" parent="1">
          <mxGeometry x="500" y="45" width="100" height="40" as="geometry" />
        </mxCell>
        <mxCell id="YmvjijiLY2P1SuIOJziN-145" style="edgeStyle=orthogonalEdgeStyle;rounded=0;orthogonalLoop=1;jettySize=auto;html=1;exitX=0;exitY=0;exitDx=0;exitDy=0;entryX=0.5;entryY=1;entryDx=0;entryDy=0;" edge="1" parent="1" source="YmvjijiLY2P1SuIOJziN-140" target="YmvjijiLY2P1SuIOJziN-144">
          <mxGeometry relative="1" as="geometry" />
        </mxCell>
        <mxCell id="YmvjijiLY2P1SuIOJziN-146" style="edgeStyle=orthogonalEdgeStyle;rounded=0;orthogonalLoop=1;jettySize=auto;html=1;exitX=1;exitY=0;exitDx=0;exitDy=0;entryX=0.5;entryY=1;entryDx=0;entryDy=0;" edge="1" parent="1" source="YmvjijiLY2P1SuIOJziN-140" target="YmvjijiLY2P1SuIOJziN-143">
          <mxGeometry relative="1" as="geometry" />
        </mxCell>
        <mxCell id="YmvjijiLY2P1SuIOJziN-140" value="Address" style="ellipse;whiteSpace=wrap;html=1;align=center;" vertex="1" parent="1">
          <mxGeometry x="615" y="5" width="60" height="40" as="geometry" />
        </mxCell>
        <mxCell id="YmvjijiLY2P1SuIOJziN-141" value="&lt;div&gt;Age&lt;/div&gt;" style="ellipse;whiteSpace=wrap;html=1;align=center;" vertex="1" parent="1">
          <mxGeometry x="690" y="5" width="60" height="40" as="geometry" />
        </mxCell>
        <mxCell id="YmvjijiLY2P1SuIOJziN-143" value="&lt;div&gt;Region&lt;/div&gt;" style="ellipse;whiteSpace=wrap;html=1;align=center;" vertex="1" parent="1">
          <mxGeometry x="650" y="-60" width="60" height="40" as="geometry" />
        </mxCell>
        <mxCell id="YmvjijiLY2P1SuIOJziN-144" value="&lt;div&gt;City&lt;/div&gt;" style="ellipse;whiteSpace=wrap;html=1;align=center;" vertex="1" parent="1">
          <mxGeometry x="570" y="-60" width="60" height="40" as="geometry" />
        </mxCell>
        <mxCell id="YmvjijiLY2P1SuIOJziN-147" value="&lt;div&gt;Role&lt;/div&gt;" style="ellipse;whiteSpace=wrap;html=1;align=center;" vertex="1" parent="1">
          <mxGeometry x="770" y="35" width="60" height="40" as="geometry" />
        </mxCell>
        <mxCell id="YmvjijiLY2P1SuIOJziN-149" value="&lt;div&gt;Salary&lt;/div&gt;" style="ellipse;whiteSpace=wrap;html=1;align=center;" vertex="1" parent="1">
          <mxGeometry x="770" y="140" width="60" height="40" as="geometry" />
        </mxCell>
        <mxCell id="YmvjijiLY2P1SuIOJziN-150" value="&lt;div&gt;JoinDate&lt;/div&gt;" style="ellipse;whiteSpace=wrap;html=1;align=center;" vertex="1" parent="1">
          <mxGeometry x="770" y="90" width="60" height="40" as="geometry" />
        </mxCell>
        <mxCell id="YmvjijiLY2P1SuIOJziN-154" style="edgeStyle=orthogonalEdgeStyle;rounded=0;orthogonalLoop=1;jettySize=auto;html=1;exitX=0;exitY=0.5;exitDx=0;exitDy=0;entryX=1;entryY=0.5;entryDx=0;entryDy=0;" edge="1" parent="1" source="YmvjijiLY2P1SuIOJziN-156" target="YmvjijiLY2P1SuIOJziN-158">
          <mxGeometry relative="1" as="geometry" />
        </mxCell>
        <mxCell id="YmvjijiLY2P1SuIOJziN-155" style="edgeStyle=orthogonalEdgeStyle;rounded=0;orthogonalLoop=1;jettySize=auto;html=1;exitX=0;exitY=1;exitDx=0;exitDy=0;entryX=0.5;entryY=0;entryDx=0;entryDy=0;" edge="1" parent="1" source="YmvjijiLY2P1SuIOJziN-156" target="YmvjijiLY2P1SuIOJziN-157">
          <mxGeometry relative="1" as="geometry">
            <Array as="points">
              <mxPoint x="125" y="520" />
              <mxPoint x="125" y="510" />
              <mxPoint x="60" y="510" />
            </Array>
          </mxGeometry>
        </mxCell>
        <mxCell id="YmvjijiLY2P1SuIOJziN-160" style="edgeStyle=orthogonalEdgeStyle;rounded=0;orthogonalLoop=1;jettySize=auto;html=1;exitX=0.5;exitY=1;exitDx=0;exitDy=0;entryX=0.5;entryY=0;entryDx=0;entryDy=0;" edge="1" parent="1" source="YmvjijiLY2P1SuIOJziN-156" target="YmvjijiLY2P1SuIOJziN-159">
          <mxGeometry relative="1" as="geometry" />
        </mxCell>
        <mxCell id="YmvjijiLY2P1SuIOJziN-211" style="edgeStyle=orthogonalEdgeStyle;rounded=0;orthogonalLoop=1;jettySize=auto;html=1;exitX=1;exitY=0.5;exitDx=0;exitDy=0;entryX=0;entryY=0.5;entryDx=0;entryDy=0;" edge="1" parent="1" source="YmvjijiLY2P1SuIOJziN-156" target="YmvjijiLY2P1SuIOJziN-210">
          <mxGeometry relative="1" as="geometry" />
        </mxCell>
        <mxCell id="YmvjijiLY2P1SuIOJziN-156" value="Customer" style="whiteSpace=wrap;html=1;align=center;" vertex="1" parent="1">
          <mxGeometry x="145" y="480" width="100" height="40" as="geometry" />
        </mxCell>
        <mxCell id="YmvjijiLY2P1SuIOJziN-157" value="Code" style="ellipse;whiteSpace=wrap;html=1;align=center;fontStyle=4;" vertex="1" parent="1">
          <mxGeometry x="10" y="520" width="100" height="40" as="geometry" />
        </mxCell>
        <mxCell id="YmvjijiLY2P1SuIOJziN-158" value="Contact Number" style="ellipse;whiteSpace=wrap;html=1;align=center;" vertex="1" parent="1">
          <mxGeometry x="-5" y="450" width="100" height="40" as="geometry" />
        </mxCell>
        <mxCell id="YmvjijiLY2P1SuIOJziN-159" value="Name" style="ellipse;whiteSpace=wrap;html=1;align=center;" vertex="1" parent="1">
          <mxGeometry x="110" y="560" width="100" height="40" as="geometry" />
        </mxCell>
        <mxCell id="YmvjijiLY2P1SuIOJziN-161" style="edgeStyle=orthogonalEdgeStyle;rounded=0;orthogonalLoop=1;jettySize=auto;html=1;exitX=0;exitY=0.5;exitDx=0;exitDy=0;entryX=1;entryY=0.5;entryDx=0;entryDy=0;" edge="1" parent="1" source="YmvjijiLY2P1SuIOJziN-164" target="YmvjijiLY2P1SuIOJziN-166">
          <mxGeometry relative="1" as="geometry" />
        </mxCell>
        <mxCell id="YmvjijiLY2P1SuIOJziN-162" style="edgeStyle=orthogonalEdgeStyle;rounded=0;orthogonalLoop=1;jettySize=auto;html=1;exitX=0;exitY=1;exitDx=0;exitDy=0;entryX=0.5;entryY=0;entryDx=0;entryDy=0;" edge="1" parent="1" source="YmvjijiLY2P1SuIOJziN-164" target="YmvjijiLY2P1SuIOJziN-165">
          <mxGeometry relative="1" as="geometry">
            <Array as="points">
              <mxPoint x="870" y="510" />
              <mxPoint x="870" y="500" />
              <mxPoint x="805" y="500" />
            </Array>
          </mxGeometry>
        </mxCell>
        <mxCell id="YmvjijiLY2P1SuIOJziN-163" style="edgeStyle=orthogonalEdgeStyle;rounded=0;orthogonalLoop=1;jettySize=auto;html=1;exitX=0.5;exitY=1;exitDx=0;exitDy=0;entryX=0.5;entryY=0;entryDx=0;entryDy=0;" edge="1" parent="1" source="YmvjijiLY2P1SuIOJziN-164" target="YmvjijiLY2P1SuIOJziN-167">
          <mxGeometry relative="1" as="geometry" />
        </mxCell>
        <mxCell id="YmvjijiLY2P1SuIOJziN-170" style="edgeStyle=orthogonalEdgeStyle;rounded=0;orthogonalLoop=1;jettySize=auto;html=1;exitX=0.75;exitY=1;exitDx=0;exitDy=0;" edge="1" parent="1" source="YmvjijiLY2P1SuIOJziN-164" target="YmvjijiLY2P1SuIOJziN-168">
          <mxGeometry relative="1" as="geometry" />
        </mxCell>
        <mxCell id="YmvjijiLY2P1SuIOJziN-205" style="edgeStyle=orthogonalEdgeStyle;rounded=0;orthogonalLoop=1;jettySize=auto;html=1;exitX=0.5;exitY=0;exitDx=0;exitDy=0;entryX=1;entryY=0.5;entryDx=0;entryDy=0;" edge="1" parent="1" source="YmvjijiLY2P1SuIOJziN-164" target="YmvjijiLY2P1SuIOJziN-204">
          <mxGeometry relative="1" as="geometry" />
        </mxCell>
        <mxCell id="YmvjijiLY2P1SuIOJziN-217" style="edgeStyle=orthogonalEdgeStyle;rounded=0;orthogonalLoop=1;jettySize=auto;html=1;exitX=0;exitY=0;exitDx=0;exitDy=0;entryX=1;entryY=0.5;entryDx=0;entryDy=0;" edge="1" parent="1" source="YmvjijiLY2P1SuIOJziN-164" target="YmvjijiLY2P1SuIOJziN-215">
          <mxGeometry relative="1" as="geometry" />
        </mxCell>
        <mxCell id="YmvjijiLY2P1SuIOJziN-164" value="Item" style="whiteSpace=wrap;html=1;align=center;" vertex="1" parent="1">
          <mxGeometry x="890" y="470" width="100" height="40" as="geometry" />
        </mxCell>
        <mxCell id="YmvjijiLY2P1SuIOJziN-165" value="Code" style="ellipse;whiteSpace=wrap;html=1;align=center;fontStyle=4;" vertex="1" parent="1">
          <mxGeometry x="755" y="510" width="100" height="40" as="geometry" />
        </mxCell>
        <mxCell id="YmvjijiLY2P1SuIOJziN-166" value="Unit Price" style="ellipse;whiteSpace=wrap;html=1;align=center;" vertex="1" parent="1">
          <mxGeometry x="740" y="440" width="100" height="40" as="geometry" />
        </mxCell>
        <mxCell id="YmvjijiLY2P1SuIOJziN-167" value="Name" style="ellipse;whiteSpace=wrap;html=1;align=center;" vertex="1" parent="1">
          <mxGeometry x="855" y="550" width="100" height="40" as="geometry" />
        </mxCell>
        <mxCell id="YmvjijiLY2P1SuIOJziN-168" value="Category" style="ellipse;whiteSpace=wrap;html=1;align=center;" vertex="1" parent="1">
          <mxGeometry x="970" y="550" width="100" height="40" as="geometry" />
        </mxCell>
        <mxCell id="YmvjijiLY2P1SuIOJziN-180" style="edgeStyle=orthogonalEdgeStyle;rounded=0;orthogonalLoop=1;jettySize=auto;html=1;exitX=0;exitY=0.5;exitDx=0;exitDy=0;entryX=1;entryY=0.5;entryDx=0;entryDy=0;" edge="1" parent="1" source="YmvjijiLY2P1SuIOJziN-184" target="YmvjijiLY2P1SuIOJziN-186">
          <mxGeometry relative="1" as="geometry" />
        </mxCell>
        <mxCell id="YmvjijiLY2P1SuIOJziN-181" style="edgeStyle=orthogonalEdgeStyle;rounded=0;orthogonalLoop=1;jettySize=auto;html=1;exitX=0;exitY=1;exitDx=0;exitDy=0;entryX=0.5;entryY=0;entryDx=0;entryDy=0;" edge="1" parent="1" source="YmvjijiLY2P1SuIOJziN-184" target="YmvjijiLY2P1SuIOJziN-185">
          <mxGeometry relative="1" as="geometry">
            <Array as="points">
              <mxPoint x="490" y="520" />
              <mxPoint x="490" y="510" />
              <mxPoint x="425" y="510" />
            </Array>
          </mxGeometry>
        </mxCell>
        <mxCell id="YmvjijiLY2P1SuIOJziN-182" style="edgeStyle=orthogonalEdgeStyle;rounded=0;orthogonalLoop=1;jettySize=auto;html=1;exitX=0.5;exitY=1;exitDx=0;exitDy=0;entryX=0.5;entryY=0;entryDx=0;entryDy=0;" edge="1" parent="1" source="YmvjijiLY2P1SuIOJziN-184" target="YmvjijiLY2P1SuIOJziN-187">
          <mxGeometry relative="1" as="geometry" />
        </mxCell>
        <mxCell id="YmvjijiLY2P1SuIOJziN-183" style="edgeStyle=orthogonalEdgeStyle;rounded=0;orthogonalLoop=1;jettySize=auto;html=1;exitX=0.75;exitY=1;exitDx=0;exitDy=0;" edge="1" parent="1" source="YmvjijiLY2P1SuIOJziN-184" target="YmvjijiLY2P1SuIOJziN-188">
          <mxGeometry relative="1" as="geometry" />
        </mxCell>
        <mxCell id="YmvjijiLY2P1SuIOJziN-190" style="edgeStyle=orthogonalEdgeStyle;rounded=0;orthogonalLoop=1;jettySize=auto;html=1;exitX=1;exitY=0.5;exitDx=0;exitDy=0;entryX=0;entryY=0.5;entryDx=0;entryDy=0;" edge="1" parent="1" source="YmvjijiLY2P1SuIOJziN-184" target="YmvjijiLY2P1SuIOJziN-189">
          <mxGeometry relative="1" as="geometry" />
        </mxCell>
        <mxCell id="YmvjijiLY2P1SuIOJziN-212" style="edgeStyle=orthogonalEdgeStyle;rounded=0;orthogonalLoop=1;jettySize=auto;html=1;exitX=0.5;exitY=0;exitDx=0;exitDy=0;entryX=1;entryY=0.5;entryDx=0;entryDy=0;" edge="1" parent="1" source="YmvjijiLY2P1SuIOJziN-184" target="YmvjijiLY2P1SuIOJziN-210">
          <mxGeometry relative="1" as="geometry" />
        </mxCell>
        <mxCell id="YmvjijiLY2P1SuIOJziN-216" style="edgeStyle=orthogonalEdgeStyle;rounded=0;orthogonalLoop=1;jettySize=auto;html=1;exitX=1;exitY=0;exitDx=0;exitDy=0;entryX=0;entryY=0.5;entryDx=0;entryDy=0;shape=link;" edge="1" parent="1" source="YmvjijiLY2P1SuIOJziN-184" target="YmvjijiLY2P1SuIOJziN-215">
          <mxGeometry relative="1" as="geometry" />
        </mxCell>
        <mxCell id="YmvjijiLY2P1SuIOJziN-184" value="Order" style="whiteSpace=wrap;html=1;align=center;" vertex="1" parent="1">
          <mxGeometry x="510" y="480" width="100" height="40" as="geometry" />
        </mxCell>
        <mxCell id="YmvjijiLY2P1SuIOJziN-185" value="Id" style="ellipse;whiteSpace=wrap;html=1;align=center;fontStyle=4;" vertex="1" parent="1">
          <mxGeometry x="375" y="520" width="100" height="40" as="geometry" />
        </mxCell>
        <mxCell id="YmvjijiLY2P1SuIOJziN-186" value="Address" style="ellipse;whiteSpace=wrap;html=1;align=center;" vertex="1" parent="1">
          <mxGeometry x="360" y="450" width="100" height="40" as="geometry" />
        </mxCell>
        <mxCell id="YmvjijiLY2P1SuIOJziN-187" value="Total bill" style="ellipse;whiteSpace=wrap;html=1;align=center;" vertex="1" parent="1">
          <mxGeometry x="475" y="560" width="100" height="40" as="geometry" />
        </mxCell>
        <mxCell id="YmvjijiLY2P1SuIOJziN-188" value="Date" style="ellipse;whiteSpace=wrap;html=1;align=center;" vertex="1" parent="1">
          <mxGeometry x="590" y="560" width="100" height="40" as="geometry" />
        </mxCell>
        <mxCell id="YmvjijiLY2P1SuIOJziN-189" value="Time" style="ellipse;whiteSpace=wrap;html=1;align=center;" vertex="1" parent="1">
          <mxGeometry x="650" y="480" width="50" height="40" as="geometry" />
        </mxCell>
        <mxCell id="YmvjijiLY2P1SuIOJziN-191" value="Has" style="shape=rhombus;perimeter=rhombusPerimeter;whiteSpace=wrap;html=1;align=center;" vertex="1" parent="1">
          <mxGeometry x="370" y="160" width="80" height="50" as="geometry" />
        </mxCell>
        <mxCell id="YmvjijiLY2P1SuIOJziN-194" value="1" style="text;html=1;align=center;verticalAlign=middle;resizable=0;points=[];autosize=1;strokeColor=none;fillColor=none;" vertex="1" parent="1">
          <mxGeometry x="310" y="170" width="30" height="30" as="geometry" />
        </mxCell>
        <mxCell id="YmvjijiLY2P1SuIOJziN-195" value="M" style="text;html=1;align=center;verticalAlign=middle;resizable=0;points=[];autosize=1;strokeColor=none;fillColor=none;" vertex="1" parent="1">
          <mxGeometry x="465" y="168" width="30" height="30" as="geometry" />
        </mxCell>
        <mxCell id="YmvjijiLY2P1SuIOJziN-199" value="Manage" style="shape=rhombus;perimeter=rhombusPerimeter;whiteSpace=wrap;html=1;align=center;" vertex="1" parent="1">
          <mxGeometry x="365" y="228" width="90" height="50" as="geometry" />
        </mxCell>
        <mxCell id="YmvjijiLY2P1SuIOJziN-202" value="1" style="text;html=1;align=center;verticalAlign=middle;resizable=0;points=[];autosize=1;strokeColor=none;fillColor=none;" vertex="1" parent="1">
          <mxGeometry x="462.5" y="230" width="30" height="30" as="geometry" />
        </mxCell>
        <mxCell id="YmvjijiLY2P1SuIOJziN-203" value="1" style="text;html=1;align=center;verticalAlign=middle;resizable=0;points=[];autosize=1;strokeColor=none;fillColor=none;" vertex="1" parent="1">
          <mxGeometry x="307.5" y="228" width="30" height="30" as="geometry" />
        </mxCell>
        <mxCell id="YmvjijiLY2P1SuIOJziN-204" value="Share" style="shape=rhombus;perimeter=rhombusPerimeter;whiteSpace=wrap;html=1;align=center;" vertex="1" parent="1">
          <mxGeometry x="365" y="290" width="90" height="50" as="geometry" />
        </mxCell>
        <mxCell id="YmvjijiLY2P1SuIOJziN-208" value="1" style="text;html=1;align=center;verticalAlign=middle;resizable=0;points=[];autosize=1;strokeColor=none;fillColor=none;" vertex="1" parent="1">
          <mxGeometry x="345" y="288" width="30" height="30" as="geometry" />
        </mxCell>
        <mxCell id="YmvjijiLY2P1SuIOJziN-209" value="M" style="text;html=1;align=center;verticalAlign=middle;resizable=0;points=[];autosize=1;strokeColor=none;fillColor=none;" vertex="1" parent="1">
          <mxGeometry x="455" y="288" width="30" height="30" as="geometry" />
        </mxCell>
        <mxCell id="YmvjijiLY2P1SuIOJziN-210" value="Place" style="shape=rhombus;perimeter=rhombusPerimeter;whiteSpace=wrap;html=1;align=center;" vertex="1" parent="1">
          <mxGeometry x="365" y="360" width="90" height="50" as="geometry" />
        </mxCell>
        <mxCell id="YmvjijiLY2P1SuIOJziN-213" value="!" style="text;html=1;align=center;verticalAlign=middle;resizable=0;points=[];autosize=1;strokeColor=none;fillColor=none;" vertex="1" parent="1">
          <mxGeometry x="325" y="358" width="30" height="30" as="geometry" />
        </mxCell>
        <mxCell id="YmvjijiLY2P1SuIOJziN-214" value="M" style="text;html=1;align=center;verticalAlign=middle;resizable=0;points=[];autosize=1;strokeColor=none;fillColor=none;" vertex="1" parent="1">
          <mxGeometry x="455" y="358" width="30" height="30" as="geometry" />
        </mxCell>
        <mxCell id="YmvjijiLY2P1SuIOJziN-215" value="Has" style="shape=rhombus;perimeter=rhombusPerimeter;whiteSpace=wrap;html=1;align=center;" vertex="1" parent="1">
          <mxGeometry x="675" y="348" width="90" height="50" as="geometry" />
        </mxCell>
        <mxCell id="YmvjijiLY2P1SuIOJziN-218" value="!" style="text;html=1;align=center;verticalAlign=middle;resizable=0;points=[];autosize=1;strokeColor=none;fillColor=none;" vertex="1" parent="1">
          <mxGeometry x="645" y="348" width="30" height="30" as="geometry" />
        </mxCell>
        <mxCell id="YmvjijiLY2P1SuIOJziN-219" value="M" style="text;html=1;align=center;verticalAlign=middle;resizable=0;points=[];autosize=1;strokeColor=none;fillColor=none;" vertex="1" parent="1">
          <mxGeometry x="755" y="348" width="30" height="30" as="geometry" />
        </mxCell>
      </root>
    </mxGraphModel>
  </diagram>
</mxfile>
